<svg xmlns="http://www.w3.org/2000/svg" width="64" height="64" viewBox="0 0 64 64">
  <!-- 背景 - 円形のスタンプベース -->
  <circle cx="32" cy="32" r="30" fill="#ff9ee5" />
  <circle cx="32" cy="32" r="28" fill="#ffb7ee" />

  <!-- スタンプの縁取り - 不規則な形状 -->
  <path d="M32,4
    C42,4 50,12 58,16
    C60,36 52,48 44,56
    C36,60 28,60 20,56
    C12,48 4,36 6,16
    C14,12 22,4 32,4Z"
    fill="#ff85d5" opacity="0.6" />

  <!-- 「CS」の文字 (Chill Stamp) -->
  <text x="32" y="38"
    font-family="'Comic Sans MS', cursive"
    font-size="24"
    font-weight="bold"
    text-anchor="middle"
    fill="#ffffff"
    transform="rotate(-10, 32, 32)">
    CS
  </text>

  <!-- キラキラ装飾 -->
  <path d="M12,20 L15,15 L18,20 L15,25 Z" fill="#ffffff" opacity="0.8" />
  <path d="M45,20 L48,15 L51,20 L48,25 Z" fill="#ffffff" opacity="0.8" />
  <path d="M32,12 L35,7 L38,12 L35,17 Z" fill="#ffffff" opacity="0.8" />

  <!-- ハート装飾 -->
  <path d="M50,35 C52,33 55,33 57,35 C59,37 59,41 57,43 L50,50 L43,43 C41,41 41,37 43,35 C45,33 48,33 50,35 Z"
    fill="#ffffff" opacity="0.6" />
</svg>