<svg xmlns="http://www.w3.org/2000/svg" width="800" height="600" viewBox="0 0 800 600">
  <defs>
    <filter id="noise" x="0%" y="0%" width="100%" height="100%">
      <feTurbulence type="fractalNoise" baseFrequency="0.05" numOctaves="3" result="noise"/>
      <feColorMatrix type="matrix" values="1 0 0 0 0 0 1 0 0 0 0 0 1 0 0 0 0 0 0.5 0" result="colorNoise"/>
      <feBlend in="SourceGraphic" in2="colorNoise" mode="overlay" result="blend"/>
    </filter>
  </defs>
  <rect width="800" height="600" fill="#000000" opacity="0.15" filter="url(#noise)"/>

  <!-- スクラッチライン -->
  <g stroke="#ffffff" stroke-width="0.5" opacity="0.2">
    <line x1="10" y1="50" x2="200" y2="70"/>
    <line x1="300" y1="20" x2="500" y2="100"/>
    <line x1="600" y1="50" x2="750" y2="30"/>
    <line x1="50" y1="200" x2="250" y2="230"/>
    <line x1="400" y1="250" x2="600" y2="200"/>
    <line x1="100" y1="350" x2="300" y2="380"/>
    <line x1="500" y1="400" x2="700" y2="350"/>
    <line x1="150" y1="500" x2="350" y2="530"/>
    <line x1="450" y1="550" x2="650" y2="500"/>
  </g>

  <!-- ダート効果（点） -->
  <g fill="#ffffff" opacity="0.3">
    <circle cx="100" cy="100" r="2"/>
    <circle cx="200" cy="150" r="1"/>
    <circle cx="300" cy="50" r="1.5"/>
    <circle cx="400" cy="200" r="1"/>
    <circle cx="500" cy="100" r="2"/>
    <circle cx="600" cy="150" r="1"/>
    <circle cx="700" cy="50" r="1.5"/>
    <circle cx="150" cy="300" r="1"/>
    <circle cx="250" cy="350" r="2"/>
    <circle cx="350" cy="250" r="1"/>
    <circle cx="450" cy="400" r="1.5"/>
    <circle cx="550" cy="300" r="1"/>
    <circle cx="650" cy="350" r="2"/>
    <circle cx="750" cy="250" r="1"/>
    <circle cx="100" cy="450" r="1.5"/>
    <circle cx="200" cy="500" r="1"/>
    <circle cx="300" cy="400" r="2"/>
    <circle cx="400" cy="550" r="1"/>
    <circle cx="500" cy="450" r="1.5"/>
    <circle cx="600" cy="500" r="1"/>
    <circle cx="700" cy="400" r="2"/>
  </g>
</svg>